<?xml version="1.0" encoding="UTF-8"?>
<svg width="120px" height="70px" viewBox="0 0 120 70" version="1.1" xmlns="http://www.w3.org/2000/svg" xmlns:xlink="http://www.w3.org/1999/xlink">
    <title>preloader</title>
    <g id="preloader" stroke="none" stroke-width="1" fill="none" fill-rule="evenodd">
        <path d="M30.6921875,43.7430435 C31.3455208,43.7430435 31.9288542,43.4863768 32.4421875,42.9730435 C32.8621875,42.5997101 33.2471875,42.1330435 33.5971875,41.5730435 C33.9471875,41.0130435 34.2155208,40.5463768 34.4021875,40.1730435 C34.5888542,39.7997101 34.8571875,39.1930435 35.2071875,38.3530435 C35.5571875,37.5130435 35.7788542,36.9763768 35.8721875,36.7430435 C35.8755208,36.7363768 35.879747,36.7275673 35.8848661,36.7166149 L35.9262946,36.6251863 C36.0218899,36.4104244 36.2255208,35.9363768 36.5371875,35.2030435 C36.9338542,34.2697101 37.2138542,33.6513768 37.3771875,33.3480435 C37.5405208,33.0447101 37.8205208,32.6130435 38.2171875,32.0530435 C38.6138542,31.4930435 38.9988542,31.0730435 39.3721875,30.7930435 C39.9321875,30.3730435 40.6555208,30.3030435 41.5421875,30.5830435 C42.1488542,30.9097101 42.7088542,31.3180435 43.2221875,31.8080435 C43.7355208,32.2980435 44.1088542,32.7180435 44.3421875,33.0680435 C44.5755208,33.4180435 44.9255208,34.0013768 45.3921875,34.8180435 L45.5159892,35.0341179 C45.9170911,35.7321895 46.2024905,36.208498 46.3721875,36.4630435 C47.3521875,37.9563768 48.4021875,38.6330435 49.5221875,38.4930435 C51.3888542,38.3063768 53.4421875,37.0463768 55.6821875,34.7130435 L55.6821875,34.7130435 L55.6821875,34.4330435 C55.5888542,34.2930435 55.4721875,34.2697101 55.3321875,34.3630435 C54.4921875,35.2497101 53.6055208,35.9963768 52.6721875,36.6030435 C51.5055208,37.3497101 50.4555208,37.7463768 49.5221875,37.7930435 C48.5888542,37.8863768 47.7721875,37.3497101 47.0721875,36.1830435 C47.0255208,36.1363768 46.6638542,35.5063768 45.9871875,34.2930435 C45.3105208,33.0797101 44.7621875,32.2280435 44.3421875,31.7380435 C43.9221875,31.2480435 43.3855208,30.8163768 42.7321875,30.4430435 C41.1455208,29.6497101 39.9321875,29.6497101 39.0921875,30.4430435 C38.7655208,30.7230435 38.4621875,31.0497101 38.1821875,31.4230435 C37.9021875,31.7963768 37.6455208,32.2280435 37.4121875,32.7180435 C37.1788542,33.2080435 36.9805208,33.6163768 36.8171875,33.9430435 C36.6538542,34.2697101 36.4555208,34.7363768 36.2221875,35.3430435 C35.9888542,35.9497101 35.8021875,36.3930435 35.6621875,36.6730435 C35.6155208,36.8130435 35.4871875,37.1163768 35.2771875,37.5830435 C35.0671875,38.0497101 34.9155208,38.3763768 34.8221875,38.5630435 C34.7288542,38.7497101 34.5888542,39.0413768 34.4021875,39.4380435 C34.2155208,39.8347101 34.0521875,40.1497101 33.9121875,40.3830435 C33.7721875,40.6163768 33.6088542,40.8847101 33.4221875,41.1880435 C33.2355208,41.4913768 33.0371875,41.7597101 32.8271875,41.9930435 C32.6171875,42.2263768 32.3955208,42.4363768 32.1621875,42.6230435 C31.6955208,42.9963768 31.2288542,43.1830435 30.7621875,43.1830435 C30.3421875,43.1830435 29.9921875,42.9263768 29.7121875,42.4130435 C29.0121875,41.0130435 28.4055208,38.3530435 27.8921875,34.4330435 C28.9188542,33.7797101 29.8988542,32.1230435 30.8321875,29.4630435 C31.7655208,26.8030435 32.4888542,24.1430435 33.0021875,21.4830435 C34.5421875,12.3830435 33.8655208,6.38637681 30.9721875,3.49304348 C30.5055208,3.07304348 30.0271875,2.92137681 29.5371875,3.03804348 C29.0471875,3.15471014 28.6621875,3.42304348 28.3821875,3.84304348 C27.5421875,5.19637681 26.9588542,7.52971014 26.6321875,10.8430435 C25.8388542,17.2830435 25.7921875,24.3997101 26.4921875,32.1930435 C26.9588542,37.3730435 27.7755208,40.8730435 28.9421875,42.6930435 C29.3621875,43.3930435 29.7588542,43.7430435 30.1321875,43.7430435 L30.1321875,43.7430435 L30.6921875,43.7430435 Z M27.8921875,33.9430435 C26.8655208,26.0097101 26.6555208,18.3797101 27.2621875,11.0530435 C27.6355208,7.59971014 28.1488542,5.33637681 28.8021875,4.26304348 C29.4088542,3.14304348 30.2488542,3.23637681 31.3221875,4.54304348 C32.8621875,6.45637681 33.5621875,9.83971014 33.4221875,14.6930435 C33.2355208,19.5463768 32.3721875,24.1663768 30.8321875,28.5530435 C29.8055208,31.3997101 28.8255208,33.1963768 27.8921875,33.9430435 Z M68.0021875,39.4730435 C68.0021875,39.6597101 68.0955208,39.7063768 68.2821875,39.6130435 C68.3755208,39.5663768 68.4221875,39.4963768 68.4221875,39.4030435 C68.3288542,37.3963768 68.2821875,35.6230435 68.2821875,34.0830435 C69.4488542,34.0363768 70.2188542,34.0130435 70.5921875,34.0130435 L70.5921875,34.0130435 L71.6421875,34.0130435 C71.7821875,34.0130435 71.8755208,34.0363768 71.9221875,34.0830435 L71.9221875,34.0830435 L71.9921875,34.0830435 C72.1788542,34.0830435 72.2721875,33.9897101 72.2721875,33.8030435 C72.4121875,33.7097101 72.3655208,33.6630435 72.1321875,33.6630435 L72.1321875,33.6630435 L71.7121875,33.6630435 C71.6655208,33.6630435 70.5221875,33.7097101 68.2821875,33.8030435 C68.2821875,33.6899666 68.282153,33.578719 68.2820839,33.4693009 L68.2812555,32.8347447 C68.2764922,30.4864311 68.2534696,29.105864 68.2121875,28.6930435 C68.2121875,28.5530435 68.1655208,28.4830435 68.0721875,28.4830435 C67.9788542,28.4830435 67.9321875,28.5530435 67.9321875,28.6930435 L67.9321875,28.6930435 L67.9321875,33.8030435 C67.8855208,33.8030435 67.7921875,33.8147101 67.6521875,33.8380435 C67.5121875,33.8613768 67.3955208,33.8730435 67.3021875,33.8730435 C65.3421875,34.0130435 63.7555208,34.0830435 62.5421875,34.0830435 L62.5421875,34.0830435 L62.4721875,34.0830435 C62.2855208,34.0830435 62.2155208,34.1763768 62.2621875,34.3630435 C62.2621875,34.5963768 62.3555208,34.6897101 62.5421875,34.6430435 C64.8288542,34.4097101 66.4388542,34.2463768 67.3721875,34.1530435 L67.3721875,34.1530435 L68.0021875,34.1530435 L68.0021875,39.4730435 Z M79.9021875,26.8730435 C80.0888542,26.8730435 80.2638542,26.8263768 80.4271875,26.7330435 C80.5905208,26.6397101 80.7188542,26.5113768 80.8121875,26.3480435 C80.9055208,26.1847101 80.9521875,26.0097101 80.9521875,25.8230435 C80.9521875,25.5430435 80.8471875,25.2980435 80.6371875,25.0880435 C80.4271875,24.8780435 80.1821875,24.7730435 79.9021875,24.7730435 C79.7621875,24.7730435 79.6221875,24.7963768 79.4821875,24.8430435 C79.3421875,24.8897101 79.2255208,24.9597101 79.1321875,25.0530435 C79.0388542,25.1463768 78.9688542,25.2630435 78.9221875,25.4030435 C78.8755208,25.5430435 78.8521875,25.6830435 78.8521875,25.8230435 C78.8521875,26.1030435 78.9571875,26.3480435 79.1671875,26.5580435 C79.3771875,26.7680435 79.6221875,26.8730435 79.9021875,26.8730435 Z M75.6321875,67.0530435 C76.5655208,67.4263768 77.4521875,67.2630435 78.2921875,66.5630435 C79.4588542,65.7230435 80.3688542,64.2530435 81.0221875,62.1530435 C82.8421875,56.1330435 83.3321875,48.8530435 82.4921875,40.3130435 C84.5921875,38.4930435 86.7621875,37.0697101 89.0021875,36.0430435 C90.7288542,35.2497101 92.3621875,34.8063768 93.9021875,34.7130435 C94.0421875,34.7130435 94.1121875,34.6430435 94.1121875,34.5030435 C94.1121875,34.3630435 94.0421875,34.2930435 93.9021875,34.2930435 C93.0621875,34.3397101 92.1988542,34.5030435 91.3121875,34.7830435 C88.2788542,35.7163768 85.3388542,37.4430435 82.4921875,39.9630435 C82.2121875,37.1630435 81.7688542,34.2930435 81.1621875,31.3530435 C81.1155208,31.1663768 80.9871875,31.0380435 80.7771875,30.9680435 C80.5671875,30.8980435 80.3921875,30.9213768 80.2521875,31.0380435 C80.1121875,31.1547101 80.0421875,31.3297101 80.0421875,31.5630435 C80.7421875,34.6897101 81.2788542,37.7230435 81.6521875,40.6630435 C76.9855208,45.0497101 74.0455208,49.8330435 72.8321875,55.0130435 C72.4588542,56.8330435 72.2955208,58.5597101 72.3421875,60.1930435 C72.6688542,64.0197101 73.7655208,66.3063768 75.6321875,67.0530435 Z M77.9421875,66.1430435 C77.4288542,66.5630435 76.9038542,66.7263768 76.3671875,66.6330435 C75.8305208,66.5397101 75.3755208,66.3413768 75.0021875,66.0380435 C74.6288542,65.7347101 74.2788542,65.3497101 73.9521875,64.8830435 C72.5521875,62.5030435 72.2955208,59.2363768 73.1821875,55.0830435 C74.3955208,49.9497101 77.2188542,45.2830435 81.6521875,41.0830435 C82.5388542,49.0163768 82.1421875,55.9697101 80.4621875,61.9430435 C79.7621875,63.9963768 78.9221875,65.3963768 77.9421875,66.1430435 Z" id="h+j" stroke="#333333" stroke-width="0.2" fill="#333333" fill-rule="nonzero"></path>
    </g>
</svg>